<?xml version="1.0" encoding="iso-8859-1"?>
<!-- Generator: Adobe Illustrator 17.1.0, SVG Export Plug-In . SVG Version: 6.00 Build 0)  -->
<!DOCTYPE svg PUBLIC "-//W3C//DTD SVG 1.1//EN" "http://www.w3.org/Graphics/SVG/1.1/DTD/svg11.dtd">
<svg version="1.1" id="Capa_1" xmlns="http://www.w3.org/2000/svg" xmlns:xlink="http://www.w3.org/1999/xlink" x="0px" y="0px"
	 viewBox="0 0 96.579 96.579" style="enable-background:new 0 0 96.579 96.579;" xml:space="preserve">
<g>
	<path d="M24.892,54.957c0.388,0.171,0.802,0.258,1.231,0.258c0,0,0,0,0,0c1.177,0,2.273-0.669,2.794-1.704l6.515-12.961v10.038
		l-8.154,24.458c-0.433,1.298-0.326,2.656,0.301,3.824c0.603,1.124,1.616,1.927,2.852,2.261c0.408,0.11,0.83,0.166,1.256,0.166
		c2.207,0,4.242-1.481,4.949-3.601l7.767-23.298h4.456l5.632,1.929c0.944,0.324,1.759,1.483,1.744,2.481l-0.18,11.683
		c-0.015,0.961,0.349,1.868,1.023,2.553c0.674,0.685,1.575,1.062,2.537,1.062h1.576c1.985,0,3.6-1.615,3.6-3.6V52.515
		c0-1.892-1.435-3.745-3.267-4.219l-5.541-1.433V35.941l4.604,5.142c0.581,0.648,1.422,1.02,2.31,1.02c0,0,0,0,0,0
		c0.714,0,1.407-0.245,1.951-0.689l8.697-7.113c1.28-1.046,1.472-2.94,0.427-4.222l-0.411-0.504
		c-1.002-1.229-2.968-1.47-4.238-0.516l-4.812,3.62c-0.225,0.169-0.462,0.205-0.622,0.205c-0.33,0-0.632-0.143-0.829-0.393
		l-7.362-9.338c-0.058-0.073-0.127-0.129-0.189-0.195c-0.533-0.836-1.463-1.395-2.526-1.395H41.355h-2.923h-0.204
		c-1.472,0-3.13,1.036-3.776,2.358L21.624,50.195c-0.354,0.725-0.398,1.537-0.123,2.289c0.274,0.751,0.832,1.344,1.57,1.67
		L24.892,54.957z"/>
	<path d="M45.707,19.518c5.381,0,9.759-4.378,9.759-9.759S51.088,0,45.707,0s-9.759,4.378-9.759,9.759S40.326,19.518,45.707,19.518z
		"/>
	<path d="M75.1,76.358c-0.609-2.123-2.824-3.351-4.948-2.741L25.017,86.574c-2.124,0.609-3.351,2.825-2.741,4.948
		c0.504,1.755,2.104,2.897,3.843,2.897c0.365,0,0.737-0.05,1.105-0.156l4.317-1.239c0.207,1.991,1.874,3.555,3.919,3.555
		c2.183,0,3.959-1.777,3.959-3.961c0-0.625-0.159-1.209-0.418-1.735l21.351-6.129c0.376,1.795,1.969,3.148,3.873,3.148
		c2.184,0,3.961-1.776,3.961-3.96c0-0.481-0.099-0.936-0.257-1.363l4.43-1.272C74.483,80.697,75.71,78.481,75.1,76.358z"/>
</g>
<g>
</g>
<g>
</g>
<g>
</g>
<g>
</g>
<g>
</g>
<g>
</g>
<g>
</g>
<g>
</g>
<g>
</g>
<g>
</g>
<g>
</g>
<g>
</g>
<g>
</g>
<g>
</g>
<g>
</g>
</svg>
